<svg xmlns="http://www.w3.org/2000/svg" viewBox="0 0 536 192.62"><defs><style>.cls-1{fill:#fff;}.cls-2{fill:#1b75bc;stroke:#3f6db5;}.cls-2,.cls-3,.cls-4,.cls-5{stroke-miterlimit:10;}.cls-3{fill:#ffd200;stroke:#cfab06;}.cls-4,.cls-6{fill:#39b54a;}.cls-4,.cls-5{stroke:#d1d3d4;}.cls-5{fill:#e6e7e8;}.cls-6{font-size:54.23px;font-family:SourceCodePro-Semibold, Source Code Pro;font-weight:700;}</style></defs><title>logo</title><g id="Layer_4" data-name="Layer 4"><rect class="cls-1" width="536" height="190"/></g><g id="Layer_1" data-name="Layer 1"><path class="cls-2" d="M123.67,62.84h12.88c2.87.5,5.77.85,8.59,1.53,10.29,2.47,13.8,7,13.8,17.5,0,5.24.11,10.47.11,15.7,0,2.74,0,5.49-.2,8.23a13,13,0,0,1-7.62,11.38,19.84,19.84,0,0,1-9,1.93c-8.75,0-17.5,0-26.25,0-10.77,0-16.83,6.08-16.92,16.94,0,3.69,0,7.38,0,11.06,0,1.23-.21,2.27-1.76,2.28-3.34,0-6.71.42-10-.22-6.43-1.24-9.86-5.76-12.12-11.47-1.4-3.53-1.82-7.29-2.51-11V114.87c.63-2.84,1-5.72,1.88-8.51,3-9.23,8.85-13.61,18.47-13.62l33.7,0a19.93,19.93,0,0,0,2.56-.11,1.55,1.55,0,0,0,1.43-1.8,1.5,1.5,0,0,0-1.37-1.59,22,22,0,0,0-2.57-.12c-7,0-14.06-.07-21.09,0-2.18,0-3.15-.79-3.08-3,.08-2.4.11-4.81,0-7.2-.4-6.18,1.08-10.5,9.81-13.7C116.05,63.86,119.91,63.63,123.67,62.84ZM119.87,77a5.28,5.28,0,0,0-5.06-5.1,5.22,5.22,0,0,0-4.88,5,5,5,0,0,0,4.89,4.9A5.1,5.1,0,0,0,119.87,77Z" transform="translate(-34 -26)"/><path class="cls-3" d="M189.79,113v18.55c-.44,1.56-.82,3.14-1.31,4.68-3.21,10.1-8.64,14-19.14,14-11.07,0-22.14,0-33.21,0a16.31,16.31,0,0,0-2.32.1,1.75,1.75,0,0,0-1.63,1.95,1.63,1.63,0,0,0,1.68,1.85c.77.05,1.55.07,2.32.07h20.34c3.56,0,3.72.17,3.77,3.83,0,2.06,0,4.12,0,6.18,0,8-2.4,11.19-10,13.83-4.27,1.49-8.74,1.66-13.1,2.48H129c-1.27-.16-2.53-.37-3.81-.47a34.91,34.91,0,0,1-13.13-3.32c-5.36-2.67-8.38-6.77-8.22-13.06.18-7.2,0-14.41.06-21.61a25.37,25.37,0,0,1,.93-8.14c2-5.88,7.32-9.46,14.45-9.56,9.08-.13,18.17,0,27.26-.08,11.2-.1,17.17-6,17.38-17.19.06-3.42.1-6.86,0-10.28-.06-2,.57-3.07,2.77-2.9a33.26,33.26,0,0,0,4.89,0c7.68-.52,12.36,3.53,15.43,10.06C188.36,106.83,189,110,189.79,113ZM148,171.15a4.84,4.84,0,1,0,.08-9.68,4.84,4.84,0,1,0-.08,9.68Z" transform="translate(-34 -26)"/></g><g id="Layer_2" data-name="Layer 2"><path class="cls-4" d="M76.87,150.83s-15.69-5.46-11.33-41.19C68.7,83.69,92.55,86,92.55,86l.58-48.67H44.69V150.83Z" transform="translate(-34 -26)"/><path class="cls-5" d="M103,37.31V62.58s.82-10.89,45-6.11c20.77,2.25,17.73,30.08,17.73,30.08l47.55.58V37.31Z" transform="translate(-34 -26)"/><path class="cls-5" d="M96.91,157.63H44.69v48.3H159.05V180.59s-8.74,7.84-32.51,5.73C92.09,183.27,98.39,170.37,96.91,157.63Z" transform="translate(-34 -26)"/><path class="cls-5" d="M187.08,94H213.3v111.9H168.8V158.44s27.89,3,28-37.25C196.9,98.75,187.08,94,187.08,94Z" transform="translate(-34 -26)"/></g><g id="Layer_3" data-name="Layer 3"><text class="cls-6" transform="translate(197.61 168)">PyPlanners</text></g></svg>